<svg xmlns="http://www.w3.org/2000/svg" viewBox="0 0 500 500"><g id="freepik--Earth--inject-37"><g id="freepik--earth--inject-37"><g id="freepik--earth--inject-37"><g id="freepik--World--inject-37"><path d="M285.51,172.11a95.34,95.34,0,1,1-119.72,62A95.34,95.34,0,0,1,285.51,172.11Z" style="fill:#E39BEF"></path><path d="M285.51,172.11a95.34,95.34,0,1,1-119.72,62A95.34,95.34,0,0,1,285.51,172.11Z" style="fill:#fff;opacity:0.2"></path><path d="M207.74,277.46c.81-1.14,2-2,2.8-3.13,1.17-1.58,1.32-3.81-.29-5.11-3.23-2.64-5.71-3-7.89-8-1-2.26-2.24-5.19-4.49-6.45-1.14-.64-2.53-.78-3.62-1.5a10.34,10.34,0,0,1-2.19-2.42,32,32,0,0,0-7.47-6.27,2.53,2.53,0,0,0-1.13-.52,2.5,2.5,0,0,0-1.25.32c-2.28,1-4.51,1.71-6.46-.42a5,5,0,0,1-1.22-4.17,3,3,0,0,0,.09-1.49c-.26-.77-1.22-1.05-1.71-1.7-.92-1.25.25-2.55,1.38-3a2.67,2.67,0,0,0,.81-.4,1.31,1.31,0,0,0,.35-1.14,4.11,4.11,0,0,0-.43-1.15c-.22-.43-.59-.95-1.06-.83-.3.08-.47.38-.64.63-.87,1.22-3.52,2.36-4.38.59a4.34,4.34,0,0,1-.27-2.06,10.32,10.32,0,0,1,1-4.43c1.33-2.5,5-3,7.62-2.61,1,.13,1.72-.24,2.68-.08l2,.33a6,6,0,0,1,1.38.36c1.51.69,2.1,2.57,2.06,4.24a7.93,7.93,0,0,0,0,1.54,1.66,1.66,0,0,0,.84,1.23c.93-1.34,1.13-3,1.55-4.59,1.47-5.38,8.38-5.27,12-8.68,3-2.85,4.28-1.37,7.61.25a1.52,1.52,0,0,0,.75.22,1.47,1.47,0,0,0,.66-.27,27.63,27.63,0,0,0,3.13-2.89c.52-.45,2.5-.72,2.32-1.55s-4.16-.45-3.93-1.82c.1-.58.8-.87,1.39-.86a17.85,17.85,0,0,0,1.78.17,14.29,14.29,0,0,0,2-.69c.69-.17,1.62.09,1.72.8.12.86-1.1,1.59-.78,2.4a1.32,1.32,0,0,0,.88.67,9.48,9.48,0,0,0,2.24.52c1.18-1.87,1-3.76.65-5.82-.23-1.31-1-3.06-.48-4.33s2.25-2.23,2.35-3.58a2,2,0,0,0-2.65-1.94,10.61,10.61,0,0,1-1,.44c-.77.2-1.58-.2-2.38-.11-1.89.21-3.64,1.6-5.21,2.6a9.32,9.32,0,0,0-2.33,1.85c-.8,1-1.17,2.26-1.92,3.29s-2.15,1.82-3.26,1.21c-1-.51-1.2-1.74-1.26-2.82a4.75,4.75,0,0,0-.8-3.06c-.31-.33-.74-.59-.86-1a1.29,1.29,0,0,1,.23-1c.87-1.31,2.69-1.45,4.25-1.64,4.69-.54,8.29-3.1,12.63-4.57.44-.15,1-.23,1.25.19a.84.84,0,0,1,0,.64,3.55,3.55,0,0,1-1.72,2.08c-.21.1-.46.29-.37.5a.36.36,0,0,0,.17.15,2.54,2.54,0,0,0,2.75-.07,4,4,0,0,1,.86-.57,2,2,0,0,1,1.38.15,3.14,3.14,0,0,0,1.36.34c.47,0,1-.43.9-.9a2.23,2.23,0,0,0-.29-.65,2.7,2.7,0,0,1,.48-2.65c.74-1.07,3.52-2.7,3.06-4.17-.59-1.86-4-1.24-5.24-.88-3.36.94-7.72,2.08-11.21,1.46a38.82,38.82,0,0,1-9.74-2.92l-.14-.06a95,95,0,0,0-35.16,48.53l-.21.7c2,1.09,3.9,1.22,5.4,3.15,1.26,1.61,1,3.21,1.83,4.89a10.42,10.42,0,0,0,5,5,1,1,0,0,1,.46.38.94.94,0,0,1-.09.78c-1,2.2-3.23,3.49-4.47,5.52-1.42,2.32-2,3.68-1.32,9.2s5,10.85,6.06,13.17-2,4.05-2.29,8.36c-.23,3.88-1.09,7.7-1.34,11.59a24.15,24.15,0,0,0,2.69,13.85c2.11,3.9,3.48-2.28,3.53-4.18a3.52,3.52,0,0,1,.24-1.62,4,4,0,0,1,.82-.87,10.43,10.43,0,0,0,2-3.71,4.88,4.88,0,0,1,2.74-3.05c.86-.25,1.85-.08,2.65-.5,1.09-.57,1.42-2,2.28-2.86a9.5,9.5,0,0,1,2.52-1.5c1.78-.95,2-3.9,3.95-4.34,3.13-.71,6-1.63,7.25-4.86C206.2,281.31,206.53,279.16,207.74,277.46Zm35-76.9a18.4,18.4,0,0,0-2.89,2c-.66.17-1.53.18-1.78.81s.18,1.08.59,1.46c1.22,1.11,3.09,1.77,4.51.94s4.16-4,2.23-5.37A2.41,2.41,0,0,0,242.7,200.56Zm-10.17-19.9a6,6,0,0,1,.42,4.56c-.43,1.38-1.36,2.64-1.38,4.09a10.56,10.56,0,0,0,.5,2.36,9,9,0,0,1,0,2.89,13,13,0,0,1-.63,3.92c-.55,1.54-1.53,2.69.82,3.18,1.85.39,3.64-.79,5-2.06s2.75-2.76,4.58-3.22a30.37,30.37,0,0,1,3.31-.3,13.18,13.18,0,0,0,2.81-.78,5.73,5.73,0,0,0,1.94-1c.42-.36.73-.84,1.12-1.24.88-.9,2.13-1,3.11-1.8a10.77,10.77,0,0,0,2.19-2.78c1-1.63,1.83-3.41,3.32-4.6.58-.46,1.24-.83,1.78-1.33a4.44,4.44,0,0,0,1-1.39,2,2,0,0,0,.21-1.14,1.8,1.8,0,0,0-1.5-1.24,14.14,14.14,0,0,0-2.06-.05c-2.35-.1-4.34-1.68-6.5-2.61a12.33,12.33,0,0,0-6.29-.92c-1.06.13-2.09.39-3.16.44a13.74,13.74,0,0,1-5.4-1.26,12.88,12.88,0,0,0-3.19-.81,2.79,2.79,0,0,0-3.34,2.28C230.81,177.67,231.74,179.15,232.53,180.66Zm81.57,60.41a.62.62,0,0,1-.47.32,1.09,1.09,0,0,0-.18,0c-.21,0-.21.39,0,.53a2.3,2.3,0,0,0,.6.25c.75.33.79.79,1.77.57a2.38,2.38,0,0,0,1.61-1.06c.8-1.54-1.55-2.93-.82-4.21.23-.4.8-.59.87-1.05-.44-.11-.51-.68-.66-1.11a1.31,1.31,0,0,0-.74-.8.8.8,0,0,0-1,.35,1,1,0,0,0-.09.3l0,.3a2,2,0,0,1-.37.86,1.94,1.94,0,0,0-.31.44C313.66,238.11,314.93,239.81,314.1,241.07ZM313,238.33a.46.46,0,0,0-.54-.1.72.72,0,0,0-.25.32c-.07.14-.3.54-.48.26,0-.06-.06-.14-.13-.17a.21.21,0,0,0-.22.07.92.92,0,0,0-.2.45c0,.15-.07.31-.11.46a1.26,1.26,0,0,0,0,.54.55.55,0,0,0,.28.4,1.06,1.06,0,0,0,.95,0,1.85,1.85,0,0,0,.93-1.68A.75.75,0,0,0,313,238.33Zm34.58,53.5c.12-.36.22-.72.33-1.08a36.9,36.9,0,0,1-2.43-5.91,10.77,10.77,0,0,1-.38-1.26c-.09-.42-.1-.86-.23-1.28a5.85,5.85,0,0,0-.75-1.39,20.53,20.53,0,0,1-1.63-3.07c-.25-.59-.4-1.42.15-1.74,1.06.16,1.68,1.2,2.18,2.13,1.48,2.8,2.87,5.67,4.21,8.54a95.59,95.59,0,0,0,2.42-13c-.06-.09-.13-.18-.19-.28-.47-.77-.14-.87.31-.78A95,95,0,0,0,344.1,225a3.27,3.27,0,0,0-.87.36c-1.41.84-2.63,2-4,2.84s-3.41,1.74-4.6.3a1.41,1.41,0,0,1,0-1.95,1.77,1.77,0,0,1,.91-.28,6.33,6.33,0,0,1,2.17.19,2,2,0,0,0,.68.13.57.57,0,0,0,.52-.39c.07-.37-.31-.62-.64-.76-1.89-.87-4.9-3.76-7-3.45-.88.12-1.4.87-2,1.45-1.18,1.15-2.75,1.76-4.05,2.75-1.5,1.12-2.47,2.94-3.57,4.47a4.37,4.37,0,0,0-1,2.22,2.25,2.25,0,0,0,1,2,4.86,4.86,0,0,0,2.68.52c1.57,0,2.73.8,3.4-1.08.84-2.37,1.31-4.32,3.41-6a1.18,1.18,0,0,1,.65,1.15,2.7,2.7,0,0,1-.47,1.31c-.82,1.38-2,2.66-2,4.27a17.86,17.86,0,0,0,.26,1.89,2,2,0,0,1-.53,1.76c-.7.63-1.8.33-2.62-.13a8.89,8.89,0,0,1-2.24-1.86c-.85.51-1,1.67-1.06,2.67a4.26,4.26,0,0,1-3.51,4,5.7,5.7,0,0,0-1.64.28c-1.65.71-.4,1.54-.09,2.63s-.29,2.68-1.73,2.45c-.36,0-.68-.28-1-.32a1.49,1.49,0,0,0-1.45,1.16,3.94,3.94,0,0,0,.13,2A5.74,5.74,0,0,0,315,254.3a3.24,3.24,0,0,0,4.57-.21c.53-.62.87-1.51,1.64-1.8s1.69.2,2.54.45a20.91,20.91,0,0,0,2.18.52c.7.14,1.6,0,2.1.66a2.2,2.2,0,0,1,.33,1,21.63,21.63,0,0,1,.3,3,8.87,8.87,0,0,1,.1,2.57,8.07,8.07,0,0,1-.6,1.57c-.17.35-.33.71-.49,1.06.3.15.64-.07.89-.29s.54-.48.86-.44c.12,0,.22.08.34.1.51.06.28-2.6.32-3a15.93,15.93,0,0,1,.48-2.73c0-.08,0-.18.13-.23a.28.28,0,0,1,.28,0c.41.2.51.73.55,1.19.11,1,.22,2,.32,2.95a6.58,6.58,0,0,1,0,2.17c-.07.35-.17.8.13,1a.66.66,0,0,0,.65,0,3.46,3.46,0,0,0,1.1-1,2.85,2.85,0,0,1,1.13-.94,1.06,1.06,0,0,1,1.29.41,2,2,0,0,1,.12.63c.29,1.92,1.92,2.21,3.61,1.84a1.73,1.73,0,0,1,.75-.07,1,1,0,0,1,.68.75,3.08,3.08,0,0,1,0,1.05c-.17,1.83-.4,3.77-1.6,5.15a1.35,1.35,0,0,1-.4.32,1.21,1.21,0,0,1-.68,0,4.1,4.1,0,0,1-2.4-1.09,16.79,16.79,0,0,1-1.24-2,1.78,1.78,0,0,0-2-.86c-.69.32-.88.72-1.72.7-2.88,0-4.72-2.91-6.39-4.91a18.42,18.42,0,0,0-8.68-6,9,9,0,0,0-4.05-.46,11.24,11.24,0,0,0-3.32,1.25,106.92,106.92,0,0,0-11.28,6.61c-2.56,1.72-5.21,3.77-6,6.74a13.83,13.83,0,0,0,.1,5.9c.38,2.44.43,5.34,1.22,7.67.7,2,2,3.24,1.76,5.64a2.36,2.36,0,0,0,.05,1.24,1.89,1.89,0,0,0,.71.75,11.84,11.84,0,0,0,8,2c1.54-.17,3.1-.66,4.61-.28,2.4.6,3.73,3.13,4.75,5.39,1.91,4.23-1.83,8.63-3.5,12.23a26.62,26.62,0,0,0-1.89,7.95,147.06,147.06,0,0,0-1.26,22.39,5.35,5.35,0,0,0,.25,1.55A94.94,94.94,0,0,0,347.53,291.83Zm-.79-28.29c-2.12.52-3.67-2-5.7-2.06a11.75,11.75,0,0,1-1.33,0,1.1,1.1,0,0,1-.95-.78,1.41,1.41,0,0,1,.3-1c.14-.22.31-.43.42-.62.46-.76.84-1.56,1.23-2.35a.42.42,0,0,1,.17-.2.44.44,0,0,1,.2,0,1.27,1.27,0,0,1,.91.8c.09.24.09.51.19.74a.6.6,0,0,0,.58.41c.39-.07.46-.67.84-.79s.62.2.83.48c.93,1.27,1.86,2.55,2.81,3.83a1.45,1.45,0,0,1,.31.62A1,1,0,0,1,346.74,263.54Z" style="fill:#E39BEF"></path><path d="M207.74,277.46c.81-1.14,2-2,2.8-3.13,1.17-1.58,1.32-3.81-.29-5.11-3.23-2.64-5.71-3-7.89-8-1-2.26-2.24-5.19-4.49-6.45-1.14-.64-2.53-.78-3.62-1.5a10.34,10.34,0,0,1-2.19-2.42,32,32,0,0,0-7.47-6.27,2.53,2.53,0,0,0-1.13-.52,2.5,2.5,0,0,0-1.25.32c-2.28,1-4.51,1.71-6.46-.42a5,5,0,0,1-1.22-4.17,3,3,0,0,0,.09-1.49c-.26-.77-1.22-1.05-1.71-1.7-.92-1.25.25-2.55,1.38-3a2.67,2.67,0,0,0,.81-.4,1.31,1.31,0,0,0,.35-1.14,4.11,4.11,0,0,0-.43-1.15c-.22-.43-.59-.95-1.06-.83-.3.08-.47.38-.64.63-.87,1.22-3.52,2.36-4.38.59a4.34,4.34,0,0,1-.27-2.06,10.32,10.32,0,0,1,1-4.43c1.33-2.5,5-3,7.62-2.61,1,.13,1.72-.24,2.68-.08l2,.33a6,6,0,0,1,1.38.36c1.51.69,2.1,2.57,2.06,4.24a7.93,7.93,0,0,0,0,1.54,1.66,1.66,0,0,0,.84,1.23c.93-1.34,1.13-3,1.55-4.59,1.47-5.38,8.38-5.27,12-8.68,3-2.85,4.28-1.37,7.61.25a1.52,1.52,0,0,0,.75.22,1.47,1.47,0,0,0,.66-.27,27.63,27.63,0,0,0,3.13-2.89c.52-.45,2.5-.72,2.32-1.55s-4.16-.45-3.93-1.82c.1-.58.8-.87,1.39-.86a17.85,17.85,0,0,0,1.78.17,14.29,14.29,0,0,0,2-.69c.69-.17,1.62.09,1.72.8.12.86-1.1,1.59-.78,2.4a1.32,1.32,0,0,0,.88.67,9.48,9.48,0,0,0,2.24.52c1.18-1.87,1-3.76.65-5.82-.23-1.31-1-3.06-.48-4.33s2.25-2.23,2.35-3.58a2,2,0,0,0-2.65-1.94,10.61,10.61,0,0,1-1,.44c-.77.2-1.58-.2-2.38-.11-1.89.21-3.64,1.6-5.21,2.6a9.32,9.32,0,0,0-2.33,1.85c-.8,1-1.17,2.26-1.92,3.29s-2.15,1.82-3.26,1.21c-1-.51-1.2-1.74-1.26-2.82a4.75,4.75,0,0,0-.8-3.06c-.31-.33-.74-.59-.86-1a1.29,1.29,0,0,1,.23-1c.87-1.31,2.69-1.45,4.25-1.64,4.69-.54,8.29-3.1,12.63-4.57.44-.15,1-.23,1.25.19a.84.84,0,0,1,0,.64,3.55,3.55,0,0,1-1.72,2.08c-.21.1-.46.29-.37.5a.36.36,0,0,0,.17.15,2.54,2.54,0,0,0,2.75-.07,4,4,0,0,1,.86-.57,2,2,0,0,1,1.38.15,3.14,3.14,0,0,0,1.36.34c.47,0,1-.43.9-.9a2.23,2.23,0,0,0-.29-.65,2.7,2.7,0,0,1,.48-2.65c.74-1.07,3.52-2.7,3.06-4.17-.59-1.86-4-1.24-5.24-.88-3.36.94-7.72,2.08-11.21,1.46a38.82,38.82,0,0,1-9.74-2.92l-.14-.06a95,95,0,0,0-35.16,48.53l-.21.7c2,1.09,3.9,1.22,5.4,3.15,1.26,1.61,1,3.21,1.83,4.89a10.42,10.42,0,0,0,5,5,1,1,0,0,1,.46.38.94.94,0,0,1-.09.78c-1,2.2-3.23,3.49-4.47,5.52-1.42,2.32-2,3.68-1.32,9.2s5,10.85,6.06,13.17-2,4.05-2.29,8.36c-.23,3.88-1.09,7.7-1.34,11.59a24.15,24.15,0,0,0,2.69,13.85c2.11,3.9,3.48-2.28,3.53-4.18a3.52,3.52,0,0,1,.24-1.62,4,4,0,0,1,.82-.87,10.43,10.43,0,0,0,2-3.71,4.88,4.88,0,0,1,2.74-3.05c.86-.25,1.85-.08,2.65-.5,1.09-.57,1.42-2,2.28-2.86a9.5,9.5,0,0,1,2.52-1.5c1.78-.95,2-3.9,3.95-4.34,3.13-.71,6-1.63,7.25-4.86C206.2,281.31,206.53,279.16,207.74,277.46Zm35-76.9a18.4,18.4,0,0,0-2.89,2c-.66.17-1.53.18-1.78.81s.18,1.08.59,1.46c1.22,1.11,3.09,1.77,4.51.94s4.16-4,2.23-5.37A2.41,2.41,0,0,0,242.7,200.56Zm-10.17-19.9a6,6,0,0,1,.42,4.56c-.43,1.38-1.36,2.64-1.38,4.09a10.56,10.56,0,0,0,.5,2.36,9,9,0,0,1,0,2.89,13,13,0,0,1-.63,3.92c-.55,1.54-1.53,2.69.82,3.18,1.85.39,3.64-.79,5-2.06s2.75-2.76,4.58-3.22a30.37,30.37,0,0,1,3.31-.3,13.18,13.18,0,0,0,2.81-.78,5.73,5.73,0,0,0,1.94-1c.42-.36.73-.84,1.12-1.24.88-.9,2.13-1,3.11-1.8a10.77,10.77,0,0,0,2.19-2.78c1-1.63,1.83-3.41,3.32-4.6.58-.46,1.24-.83,1.78-1.33a4.44,4.44,0,0,0,1-1.39,2,2,0,0,0,.21-1.14,1.8,1.8,0,0,0-1.5-1.24,14.14,14.14,0,0,0-2.06-.05c-2.35-.1-4.34-1.68-6.5-2.61a12.33,12.33,0,0,0-6.29-.92c-1.06.13-2.09.39-3.16.44a13.74,13.74,0,0,1-5.4-1.26,12.88,12.88,0,0,0-3.19-.81,2.79,2.79,0,0,0-3.34,2.28C230.81,177.67,231.74,179.15,232.53,180.66Zm81.57,60.41a.62.62,0,0,1-.47.32,1.09,1.09,0,0,0-.18,0c-.21,0-.21.39,0,.53a2.3,2.3,0,0,0,.6.25c.75.33.79.79,1.77.57a2.38,2.38,0,0,0,1.61-1.06c.8-1.54-1.55-2.93-.82-4.21.23-.4.8-.59.87-1.05-.44-.11-.51-.68-.66-1.11a1.31,1.31,0,0,0-.74-.8.8.8,0,0,0-1,.35,1,1,0,0,0-.09.3l0,.3a2,2,0,0,1-.37.86,1.94,1.94,0,0,0-.31.44C313.66,238.11,314.93,239.81,314.1,241.07ZM313,238.33a.46.46,0,0,0-.54-.1.72.72,0,0,0-.25.32c-.07.14-.3.54-.48.26,0-.06-.06-.14-.13-.17a.21.21,0,0,0-.22.07.92.92,0,0,0-.2.45c0,.15-.07.31-.11.46a1.26,1.26,0,0,0,0,.54.55.55,0,0,0,.28.4,1.06,1.06,0,0,0,.95,0,1.85,1.85,0,0,0,.93-1.68A.75.75,0,0,0,313,238.33Zm34.58,53.5c.12-.36.22-.72.33-1.08a36.9,36.9,0,0,1-2.43-5.91,10.77,10.77,0,0,1-.38-1.26c-.09-.42-.1-.86-.23-1.28a5.85,5.85,0,0,0-.75-1.39,20.53,20.53,0,0,1-1.63-3.07c-.25-.59-.4-1.42.15-1.74,1.06.16,1.68,1.2,2.18,2.13,1.48,2.8,2.87,5.67,4.21,8.54a95.59,95.59,0,0,0,2.42-13c-.06-.09-.13-.18-.19-.28-.47-.77-.14-.87.31-.78A95,95,0,0,0,344.1,225a3.27,3.27,0,0,0-.87.36c-1.41.84-2.63,2-4,2.84s-3.41,1.74-4.6.3a1.41,1.41,0,0,1,0-1.95,1.77,1.77,0,0,1,.91-.28,6.33,6.33,0,0,1,2.17.19,2,2,0,0,0,.68.13.57.57,0,0,0,.52-.39c.07-.37-.31-.62-.64-.76-1.89-.87-4.9-3.76-7-3.45-.88.12-1.4.87-2,1.45-1.18,1.15-2.75,1.76-4.05,2.75-1.5,1.12-2.47,2.94-3.57,4.47a4.37,4.37,0,0,0-1,2.22,2.25,2.25,0,0,0,1,2,4.86,4.86,0,0,0,2.68.52c1.57,0,2.73.8,3.4-1.08.84-2.37,1.31-4.32,3.41-6a1.18,1.18,0,0,1,.65,1.15,2.7,2.7,0,0,1-.47,1.31c-.82,1.38-2,2.66-2,4.27a17.86,17.86,0,0,0,.26,1.89,2,2,0,0,1-.53,1.76c-.7.63-1.8.33-2.62-.13a8.89,8.89,0,0,1-2.24-1.86c-.85.51-1,1.67-1.06,2.67a4.26,4.26,0,0,1-3.51,4,5.7,5.7,0,0,0-1.64.28c-1.65.71-.4,1.54-.09,2.63s-.29,2.68-1.73,2.45c-.36,0-.68-.28-1-.32a1.49,1.49,0,0,0-1.45,1.16,3.94,3.94,0,0,0,.13,2A5.74,5.74,0,0,0,315,254.3a3.24,3.24,0,0,0,4.57-.21c.53-.62.87-1.51,1.64-1.8s1.69.2,2.54.45a20.91,20.91,0,0,0,2.18.52c.7.14,1.6,0,2.1.66a2.2,2.2,0,0,1,.33,1,21.63,21.63,0,0,1,.3,3,8.87,8.87,0,0,1,.1,2.57,8.07,8.07,0,0,1-.6,1.57c-.17.35-.33.71-.49,1.06.3.15.64-.07.89-.29s.54-.48.86-.44c.12,0,.22.08.34.1.51.06.28-2.6.32-3a15.93,15.93,0,0,1,.48-2.73c0-.08,0-.18.13-.23a.28.28,0,0,1,.28,0c.41.2.51.73.55,1.19.11,1,.22,2,.32,2.95a6.58,6.58,0,0,1,0,2.17c-.07.35-.17.8.13,1a.66.66,0,0,0,.65,0,3.46,3.46,0,0,0,1.1-1,2.85,2.85,0,0,1,1.13-.94,1.06,1.06,0,0,1,1.29.41,2,2,0,0,1,.12.63c.29,1.92,1.92,2.21,3.61,1.84a1.73,1.73,0,0,1,.75-.07,1,1,0,0,1,.68.75,3.08,3.08,0,0,1,0,1.05c-.17,1.83-.4,3.77-1.6,5.15a1.35,1.35,0,0,1-.4.32,1.21,1.21,0,0,1-.68,0,4.1,4.1,0,0,1-2.4-1.09,16.79,16.79,0,0,1-1.24-2,1.78,1.78,0,0,0-2-.86c-.69.32-.88.72-1.72.7-2.88,0-4.72-2.91-6.39-4.91a18.42,18.42,0,0,0-8.68-6,9,9,0,0,0-4.05-.46,11.24,11.24,0,0,0-3.32,1.25,106.92,106.92,0,0,0-11.28,6.61c-2.56,1.72-5.21,3.77-6,6.74a13.83,13.83,0,0,0,.1,5.9c.38,2.44.43,5.34,1.22,7.67.7,2,2,3.24,1.76,5.64a2.36,2.36,0,0,0,.05,1.24,1.89,1.89,0,0,0,.71.75,11.84,11.84,0,0,0,8,2c1.54-.17,3.1-.66,4.61-.28,2.4.6,3.73,3.13,4.75,5.39,1.91,4.23-1.83,8.63-3.5,12.23a26.62,26.62,0,0,0-1.89,7.95,147.06,147.06,0,0,0-1.26,22.39,5.35,5.35,0,0,0,.25,1.55A94.94,94.94,0,0,0,347.53,291.83Zm-.79-28.29c-2.12.52-3.67-2-5.7-2.06a11.75,11.75,0,0,1-1.33,0,1.1,1.1,0,0,1-.95-.78,1.41,1.41,0,0,1,.3-1c.14-.22.31-.43.42-.62.46-.76.84-1.56,1.23-2.35a.42.42,0,0,1,.17-.2.44.44,0,0,1,.2,0,1.27,1.27,0,0,1,.91.8c.09.24.09.51.19.74a.6.6,0,0,0,.58.41c.39-.07.46-.67.84-.79s.62.2.83.48c.93,1.27,1.86,2.55,2.81,3.83a1.45,1.45,0,0,1,.31.62A1,1,0,0,1,346.74,263.54Z" style="fill:#fff;opacity:0.55"></path><path d="M334,217c-26.09-34.14-49-16.1-42,11.17s33.71,54.28,44.73,47.89S353.4,242.4,334,217Z" style="fill:#fff;opacity:0.2"></path><g style="opacity:0.5"><path d="M202.73,303.82c-31-36.21-15.12-103.37,4.68-122.37A95.33,95.33,0,1,0,325.14,329.39C307.09,344,244.38,352.48,202.73,303.82Z" style="fill:#E39BEF"></path></g><path d="M227.59,353.93a95.35,95.35,0,0,1,5.94-183.33c-3.85,1-52.46,13.79-61.13,81-9,70,55.16,102.31,69.78,105.76A96.69,96.69,0,0,1,227.59,353.93Z" style="opacity:0.1"></path></g></g><path d="M204.19,238.46a9.77,9.77,0,1,1-4.52-13.07A9.77,9.77,0,0,1,204.19,238.46Z" style="fill:#37474f"></path><circle cx="199.07" cy="233.04" r="3.46" transform="translate(-65.3 77.98) rotate(-19.1)" style="fill:#455a64"></circle><path d="M199.33,229.86a1.63,1.63,0,1,1-1.62-1.62A1.62,1.62,0,0,1,199.33,229.86Z" style="fill:#fff"></path><path d="M257,273A11,11,0,1,1,252,258.28,11,11,0,0,1,257,273Z" style="fill:#37474f"></path><path d="M269.8,265.38l-9.69-15a8.92,8.92,0,0,1,9.69,15Z" style="fill:#37474f"></path><path d="M191.84,217.38l16,1.12a8,8,0,1,0-16-1.12Z" style="fill:#37474f"></path><path d="M255,268.89a3.89,3.89,0,1,1-1.8-5.2A3.89,3.89,0,0,1,255,268.89Z" style="fill:#455a64"></path><path d="M251.63,263.67a2,2,0,1,1-1.95-1.95A2,2,0,0,1,251.63,263.67Z" style="fill:#fff"></path><path d="M203,265.15a10.83,10.83,0,1,0,17.83,12.29Z" style="fill:#E39BEF"></path><path d="M203,265.15a10.83,10.83,0,1,0,17.83,12.29Z" style="opacity:0.30000000000000004"></path><path d="M217.06,280.82a18.62,18.62,0,0,0-15.56-6.56,10.83,10.83,0,0,0,15.56,6.56Z" style="fill:#ffa8a7"></path></g></g></svg>